# xmcd
#
# Track frame offsets: 
#        150
#        21672
#        47637
#
# Disc length: 970 seconds
#
# Revision: 0
# Processed by: cddbd v1.5.2PL0 Copyright (c) Steve Scherf et al.
# Submitted via: ExactAudioCopy v1.3
#
DISCID=2203c803
DTITLE=Tony Terry - Head Over Heels (Promo CDM)
DYEAR=1990
DGENRE=Funk
TTITLE0=Head Over Heels (LP Edit)
TTITLE1=Head Over Heels (Sole Mix)
TTITLE2=Head Over Heels (Easy Listening Version)
EXTD=
EXTT0=
EXTT1=
EXTT2=
PLAYORDER=
